<svg width="54" height="164" viewBox="0 0 54 164" fill="none" xmlns="http://www.w3.org/2000/svg">
<path d="M27.1588 162C27.1588 162 15.104 44.5516 15.104 27.1582C15.104 9.76479 27.1588 9.7648 27.1588 9.7648C27.1588 9.7648 39.2137 9.76482 39.2137 27.1582C39.2137 44.5516 27.1588 162 27.1588 162Z" stroke="white" stroke-width="2.4351" stroke-linecap="round" stroke-linejoin="round"/>
<path d="M21.1316 26.7316C21.1316 19.9918 27.159 19.9918 27.159 19.9918C27.159 19.9918 33.1864 19.9918 33.1864 26.7316C33.1864 33.4714 27.159 63.2901 27.159 63.2901C27.159 63.2901 21.1316 33.4714 21.1316 26.7316Z" stroke="white" stroke-width="2.4351" stroke-linecap="round" stroke-linejoin="round"/>
<path d="M27.1589 19.9918C27.1589 19.9918 27.1589 26.3049 33.1863 26.7316" stroke="white" stroke-width="2.4351" stroke-linecap="round" stroke-linejoin="round"/>
<path d="M27.159 19.9918C27.159 19.9918 27.159 26.3049 21.1316 26.7316" stroke="white" stroke-width="2.4351" stroke-linecap="round" stroke-linejoin="round"/>
<path d="M38.2051 44.7148L37.8934 49.8893C46.6921 45.7387 52.3092 36.8871 52.3182 27.1585C52.318 13.2634 41.0535 1.99946 27.1585 2C13.2639 2.00017 2.00017 13.2639 2 27.1585C2.00576 36.933 7.67232 45.8195 16.5321 49.9481L16.1501 45.1939M23.7662 45.4315L25.0119 52.1635C25.7248 52.2456 26.441 52.2963 27.1584 52.317C27.8585 52.2978 28.5576 52.2464 29.2537 52.1673L30.7166 44.5026" stroke="white" stroke-width="2.4351" stroke-linecap="round" stroke-linejoin="round"/>
</svg>
