<svg width="160" height="180" viewBox="0 0 160 180" fill="none" xmlns="http://www.w3.org/2000/svg">
<path d="M8.85732 2.11816H151.143C152.058 2.11816 152.965 2.32111 153.812 2.71542C154.658 3.10974 155.427 3.68769 156.074 4.41629C156.722 5.14489 157.236 6.00987 157.586 6.96183C157.937 7.91378 158.117 8.93409 158.117 9.96449V170.035C158.117 171.066 157.937 172.086 157.586 173.038C157.236 173.99 156.722 174.855 156.074 175.584C155.427 176.312 154.658 176.89 153.812 177.284C152.965 177.679 152.058 177.882 151.143 177.882H8.85732C7.94142 177.882 7.03447 177.679 6.18829 177.284C5.3421 176.89 4.57323 176.312 3.92559 175.584C3.27795 174.855 2.76421 173.99 2.41371 173.038C2.06321 172.086 1.88281 171.066 1.88281 170.035V9.96449C1.88281 8.93409 2.06321 7.91378 2.41371 6.96183C2.76421 6.00987 3.27795 5.14489 3.92559 4.41629C4.57323 3.68769 5.3421 3.10974 6.18829 2.71542C7.03447 2.32111 7.94142 2.11816 8.85732 2.11816Z" stroke="white" stroke-width="3.76576" stroke-miterlimit="2" stroke-linejoin="round"/>
<path d="M51.9513 121.573V46.9438H58.9635L102.739 109.753H100.035V46.9438H108.049V121.573H101.037L57.2605 58.3636H59.9652V121.573H51.9513Z" fill="white"/>
</svg>
