<svg width="160" height="140" viewBox="0 0 160 140" fill="none" xmlns="http://www.w3.org/2000/svg">
<path d="M130.688 45.2508C129 44.6898 127.313 44.16 125.625 43.6613C125.906 42.5081 126.156 41.3549 126.406 40.2017C130.25 21.6261 127.719 6.69704 119.187 1.77263C110.969 -2.93361 97.5625 1.95963 84 13.7408C82.6562 14.894 81.3437 16.1095 80.0937 17.325C79.25 16.5147 78.375 15.7044 77.5 14.9252C63.2812 2.33364 49.0313 -2.96478 40.5 1.9908C32.3125 6.72821 29.875 20.7846 33.3125 38.3629C33.6562 40.1082 34.0313 41.8224 34.4688 43.5678C32.4688 44.1288 30.5 44.7522 28.6562 45.4067C11.9687 51.1726 0 60.2734 0 69.6859C0 79.41 12.75 89.1654 30.0938 95.0871C31.5 95.5546 32.9063 96.0221 34.3438 96.4273C33.875 98.2973 33.4688 100.136 33.0938 102.037C29.8125 119.335 32.375 133.049 40.5625 137.755C49 142.617 63.1875 137.63 77 125.569C78.0937 124.602 79.1875 123.605 80.2812 122.545C81.6562 123.886 83.0938 125.163 84.5312 126.41C97.9062 137.88 111.125 142.524 119.281 137.817C127.719 132.955 130.469 118.213 126.906 100.261C126.625 98.8895 126.313 97.487 125.969 96.0533C126.969 95.7728 127.938 95.4611 128.906 95.1495C146.938 89.1965 160 79.5659 160 69.6859C160 60.2422 147.688 51.0791 130.688 45.2508ZM88.4062 18.7899C100.031 8.69174 110.875 4.73351 115.813 7.56972C121.094 10.5929 123.125 22.8105 119.812 38.8616C119.594 39.9212 119.375 40.9498 119.094 41.9783C112.156 40.4199 105.125 39.2979 98.0625 38.6746C94 32.8775 89.5625 27.3297 84.75 22.1248C85.9688 20.9716 87.1562 19.8808 88.4062 18.7899ZM52.25 85.8616C53.8437 88.5732 55.4688 91.2847 57.1875 93.9339C52.3125 93.4041 47.4688 92.6249 42.6875 91.5964C44.0625 87.1083 45.7812 82.4644 47.7812 77.727C49.2187 80.4697 50.6875 83.1813 52.25 85.8616ZM42.7812 48.3675C47.2812 47.3702 52.0625 46.5598 57.0312 45.9365C55.375 48.5234 53.75 51.1726 52.2188 53.853C50.6875 56.5022 49.1875 59.2137 47.7812 61.9564C45.8125 57.3125 44.1562 52.7621 42.7812 48.3675ZM51.3438 69.8417C53.4063 65.5407 55.6562 61.3331 58.0312 57.1879C60.4062 53.0426 62.9688 49.0221 65.6563 45.0638C70.3438 44.721 75.125 44.534 80 44.534C84.875 44.534 89.6875 44.721 94.3437 45.0638C97 48.9909 99.5313 53.0115 101.938 57.1255C104.344 61.2396 106.594 65.4472 108.719 69.7171C106.625 74.0181 104.375 78.2569 101.969 82.4333C99.5937 86.5785 97.0625 90.5991 94.4063 94.5885C89.75 94.9313 84.9062 95.0871 80 95.0871C75.0938 95.0871 70.3437 94.9313 65.75 94.6508C63.0312 90.6926 60.4688 86.6408 58.0625 82.4956C55.6563 78.3504 53.4375 74.1428 51.3438 69.8417ZM107.781 85.7993C109.375 83.0566 110.875 80.2827 112.344 77.4777C114.344 81.9969 116.094 86.5785 117.625 91.2847C112.781 92.3756 107.875 93.2171 102.937 93.7781C104.625 91.1601 106.219 88.4797 107.781 85.7993ZM112.281 61.9564C110.812 59.2137 109.312 56.471 107.75 53.7906C106.219 51.1414 104.625 48.5234 102.969 45.9365C108 46.5598 112.812 47.4014 117.312 48.4299C115.875 53.0426 114.187 57.5307 112.281 61.9564ZM80.0625 26.8934C83.3438 30.4464 86.4375 34.1865 89.3125 38.0512C83.125 37.7707 76.9063 37.7707 70.7188 38.0512C73.7813 34.0307 76.9375 30.2906 80.0625 26.8934ZM43.8125 7.78789C49.0625 4.73351 60.7188 9.09692 73 19.9431C73.7813 20.6288 74.5625 21.3768 75.375 22.1248C70.5312 27.3297 66.0625 32.8775 61.9688 38.6746C54.9063 39.2979 47.9063 40.3887 40.9688 41.9159C40.5625 40.3264 40.2187 38.7057 39.875 37.085C36.9375 22.0001 38.875 10.6241 43.8125 7.78789ZM36.1562 89.9445C34.8437 89.5705 33.5625 89.1654 32.2813 88.729C25.625 86.6408 18.0625 83.3371 12.5937 79.0049C9.4375 76.8232 7.3125 73.4571 6.71875 69.6859C6.71875 63.9823 16.5937 56.6892 30.8437 51.7336C32.625 51.1103 34.4375 50.5492 36.25 50.0194C38.375 56.7827 40.9375 63.4213 43.9062 69.8417C40.9062 76.3557 38.3125 83.0878 36.1562 89.9445ZM72.5938 120.488C67.4375 125.195 61.4687 128.935 54.9687 131.49C51.5 133.142 47.5 133.298 43.9375 131.896C38.9688 129.028 36.9062 118.026 39.7187 103.222C40.0625 101.476 40.4375 99.731 40.875 98.0168C47.875 99.5129 54.9375 100.541 62.0937 101.071C66.2187 106.899 70.75 112.478 75.5937 117.714C74.5937 118.681 73.5938 119.616 72.5938 120.488ZM80.25 112.915C77.0625 109.486 73.875 105.684 70.7812 101.601C73.7813 101.726 76.875 101.788 80 101.788C83.2188 101.788 86.375 101.726 89.5 101.57C86.625 105.528 83.5312 109.299 80.25 112.915ZM121.094 122.265C120.813 126.067 118.938 129.62 115.938 132.02C110.969 134.888 100.375 131.148 88.9375 121.361C87.625 120.239 86.3125 119.024 84.9687 117.777C89.75 112.51 94.1563 106.931 98.1563 101.071C105.313 100.479 112.437 99.3882 119.469 97.7987C119.781 99.0765 120.062 100.354 120.312 101.601C121.844 108.333 122.094 115.346 121.094 122.265ZM126.781 88.7602C125.906 89.0407 125.031 89.3212 124.125 89.5705C121.938 82.7761 119.25 76.1375 116.156 69.6859C119.156 63.3278 121.688 56.7827 123.813 50.0817C125.438 50.5492 127 51.0479 128.5 51.5466C143.063 56.5333 153.281 63.9511 153.281 69.6236C153.281 75.7323 142.375 83.6176 126.781 88.7602ZM80 84.0851C87.9062 84.0851 94.3125 77.6958 94.3125 69.8106C94.3125 61.9253 87.9062 55.536 80 55.536C72.0938 55.536 65.6875 61.9253 65.6875 69.8106C65.6875 77.6958 72.0938 84.0851 80 84.0851Z" fill="#FC38B9"/>
</svg>
