<svg width="161" height="142" viewBox="0 0 161 142" fill="none" xmlns="http://www.w3.org/2000/svg">
<path d="M11.326 71L0.718259 71C0.71826 110.057 32.3799 141.718 71.4365 141.718C110.493 141.718 142.155 110.057 142.155 71L131.547 71C131.547 104.198 104.635 131.11 71.4365 131.11C38.2384 131.11 11.326 104.198 11.326 71Z" fill="white"/>
<path d="M27.2376 71C27.2376 95.4104 47.0261 115.199 71.4365 115.199C95.8469 115.199 115.635 95.4104 115.635 71L105.028 71C105.028 89.5519 89.9884 104.591 71.4365 104.591C52.8846 104.591 37.8453 89.5519 37.8453 71L27.2376 71Z" fill="white"/>
<path d="M53.7569 71C53.7569 80.7641 61.6723 88.6796 71.4365 88.6796C81.2006 88.6796 89.116 80.7641 89.116 71L53.7569 71Z" fill="white"/>
<path d="M150.111 71L160.718 71C160.718 31.9434 129.057 0.28176 90 0.281765C50.9434 0.28177 19.2818 31.9434 19.2818 71L29.8895 71C29.8895 37.8019 56.8019 10.8895 90 10.8895C123.198 10.8895 150.111 37.8019 150.111 71Z" fill="white"/>
<path d="M134.199 71C134.199 46.5896 114.41 26.8011 90 26.8011C65.5897 26.8011 45.8011 46.5896 45.8011 71L56.4089 71C56.4089 52.4481 71.4481 37.4088 90 37.4088C108.552 37.4088 123.591 52.4481 123.591 71L134.199 71Z" fill="white"/>
<path d="M107.68 71C107.68 61.2359 99.7642 53.3204 90 53.3204C80.2359 53.3204 72.3205 61.2359 72.3205 71L107.68 71Z" fill="white"/>
</svg>
