<svg width="160" height="160" viewBox="0 0 160 160" fill="none" xmlns="http://www.w3.org/2000/svg">
<path fill-rule="evenodd" clip-rule="evenodd" d="M80 148C117.555 148 148 117.555 148 80C148 42.4446 117.555 12 80 12C42.4446 12 12 42.4446 12 80C12 117.555 42.4446 148 80 148ZM80 160C124.183 160 160 124.183 160 80C160 35.8172 124.183 0 80 0C35.8172 0 0 35.8172 0 80C0 124.183 35.8172 160 80 160Z" fill="white"/>
<path fill-rule="evenodd" clip-rule="evenodd" d="M80 118C100.987 118 118 100.987 118 80C118 59.0132 100.987 42 80 42C59.0132 42 42 59.0132 42 80C42 100.987 59.0132 118 80 118ZM80 130C107.614 130 130 107.614 130 80C130 52.3858 107.614 30 80 30C52.3858 30 30 52.3858 30 80C30 107.614 52.3858 130 80 130Z" fill="white"/>
<path d="M100 80C100 91.0457 91.0457 100 80 100C68.9543 100 60 91.0457 60 80C60 68.9543 68.9543 60 80 60C91.0457 60 100 68.9543 100 80Z" fill="white"/>
</svg>
